<mxfile host="app.diagrams.net" modified="2023-01-03T06:05:27.707Z" agent="5.0 (Macintosh; Intel Mac OS X 10_15_7) AppleWebKit/605.1.15 (KHTML, like Gecko) Version/16.2 Safari/605.1.15" etag="z0ZMLzNIKiJeYVE2iHeE" version="20.8.0" type="github">
  <diagram id="oBjf30wMF8gnnsF7-FTI" name="第 1 页">
    <mxGraphModel dx="1025" dy="1922" grid="1" gridSize="10" guides="1" tooltips="1" connect="1" arrows="1" fold="1" page="1" pageScale="1" pageWidth="827" pageHeight="1169" math="0" shadow="0">
      <root>
        <mxCell id="0" />
        <mxCell id="1" parent="0" />
        <mxCell id="4XMiTwDpw74famjyoYAp-5" value=":Object" style="shape=umlLifeline;perimeter=lifelinePerimeter;whiteSpace=wrap;html=1;container=1;collapsible=0;recursiveResize=0;outlineConnect=0;" parent="1" vertex="1">
          <mxGeometry x="180" y="-520" width="100" height="300" as="geometry" />
        </mxCell>
        <mxCell id="4XMiTwDpw74famjyoYAp-6" value=":Object" style="shape=umlLifeline;perimeter=lifelinePerimeter;whiteSpace=wrap;html=1;container=1;collapsible=0;recursiveResize=0;outlineConnect=0;" parent="1" vertex="1">
          <mxGeometry x="470" y="-520" width="100" height="300" as="geometry" />
        </mxCell>
        <mxCell id="4XMiTwDpw74famjyoYAp-7" value="" style="html=1;points=[];perimeter=orthogonalPerimeter;" parent="4XMiTwDpw74famjyoYAp-6" vertex="1">
          <mxGeometry x="45" y="120" width="10" height="80" as="geometry" />
        </mxCell>
        <mxCell id="4XMiTwDpw74famjyoYAp-8" value="dispatch" style="html=1;verticalAlign=bottom;endArrow=block;entryX=0;entryY=0;rounded=0;" parent="1" source="4XMiTwDpw74famjyoYAp-5" target="4XMiTwDpw74famjyoYAp-7" edge="1">
          <mxGeometry relative="1" as="geometry">
            <mxPoint x="445" y="-400" as="sourcePoint" />
          </mxGeometry>
        </mxCell>
        <mxCell id="4XMiTwDpw74famjyoYAp-9" value="return" style="html=1;verticalAlign=bottom;endArrow=open;dashed=1;endSize=8;exitX=0;exitY=0.95;rounded=0;" parent="1" source="4XMiTwDpw74famjyoYAp-7" target="4XMiTwDpw74famjyoYAp-5" edge="1">
          <mxGeometry relative="1" as="geometry">
            <mxPoint x="445" y="-324" as="targetPoint" />
          </mxGeometry>
        </mxCell>
      </root>
    </mxGraphModel>
  </diagram>
</mxfile>
